<svg xmlns="http://www.w3.org/2000/svg" viewBox="0 0 263 263" width="263" height="263">
  <g fill="#000B3D" stroke="none">
    <path d="M94.629 59.137C94.629 41.023 109.367 26.285 127.48 26.285H135.125C153.238 26.285 167.977 41.023 167.977 59.137V61.785H194.258V59.137C194.258 29.652 172.668 5.215 144.441 0.742C116.211 5.215 94.629 29.652 94.629 59.137Z"/>
    <path d="M71.805 157.953H91.172V153.285H75.801V54.473C75.801 41.738 80.109 29.996 87.332 20.605C77.719 30.613 71.805 44.199 71.805 59.137V157.953Z"/>
    <path d="M167.977 203.477C167.977 221.594 153.238 236.328 135.125 236.328H127.48C109.367 236.328 94.629 221.594 94.629 203.477V200.828H68.348V203.477C68.348 232.965 89.938 257.402 118.164 261.871C146.395 257.402 167.977 232.965 167.977 203.477Z"/>
    <path d="M203.473 94.633C221.59 94.633 236.324 109.375 236.324 127.484V135.129C236.324 153.242 221.59 167.98 203.473 167.98H200.824V194.262H203.473C232.961 194.262 257.398 172.672 261.867 144.445C257.398 116.219 232.961 94.633 203.473 94.633Z"/>
    <path d="M104.66 71.809V91.18H109.324V75.809H208.141C220.875 75.809 232.613 80.113 242.008 87.336C231.996 77.727 218.41 71.809 203.473 71.809H104.66Z"/>
    <path d="M59.133 167.98C41.016 167.98 26.281 153.242 26.281 135.129V127.484C26.281 109.375 41.016 94.633 59.133 94.633H61.781V68.352H59.133C29.645 68.352 5.207 89.941 0.738 118.168C5.207 146.398 29.645 167.98 59.133 167.98Z"/>
    <path d="M190.801 104.664H171.434V109.328H186.805V208.145C186.805 220.879 182.496 232.621 175.273 242.012C184.887 232 190.801 218.418 190.801 203.477V104.664Z"/>
    <path d="M157.945 190.805V171.438H153.281V186.809H54.465C41.73 186.809 29.988 182.5 20.598 175.281C30.609 184.891 44.195 190.805 59.133 190.805H157.945Z"/>
  </g>
  <g fill="#000000" stroke="none">
    <path d="M159.734 9.148C175.93 18.531 186.539 35.871 186.816 55.625H171.254C171.34 56.52 171.402 57.418 171.426 58.328H190.797C190.492 36.828 178.172 18.145 159.734 9.148Z"/>
    <path d="M127.48 0.004C94.82 0.004 68.348 26.477 68.348 59.137V161.406H94.629V59.137C94.629 29.652 116.211 5.215 144.441 0.742C141.406 0.262 138.297 0.004 135.125 0.004H127.48Z"/>
    <path d="M102.871 253.469C86.676 244.082 76.066 226.746 75.789 206.992H91.352C91.266 206.098 91.203 205.195 91.18 204.285H71.809C72.113 225.785 84.434 244.473 102.871 253.469Z"/>
    <path d="M135.125 262.609C167.781 262.609 194.258 236.137 194.258 203.477V101.207H167.977V203.477C167.977 232.965 146.395 257.402 118.164 261.871C121.199 262.355 124.313 262.609 127.48 262.609H135.125Z"/>
    <path d="M253.465 159.738C244.078 175.934 226.738 186.543 206.984 186.82V171.258C206.094 171.344 205.191 171.406 204.281 171.43V190.801C225.781 190.496 244.469 178.176 253.465 159.738Z"/>
    <path d="M262.606 127.484C262.606 94.828 236.133 68.352 203.473 68.352H101.203V94.633H203.473C232.961 94.633 257.398 116.219 261.867 144.445C262.348 141.41 262.606 138.301 262.606 135.129V127.484Z"/>
    <path d="M9.141 102.879C18.527 86.68 35.867 76.07 55.617 75.797V91.359C56.512 91.273 57.414 91.207 58.324 91.188V71.816C36.824 72.117 18.137 84.438 9.141 102.879Z"/>
    <path d="M0 135.129C0 167.789 26.473 194.262 59.133 194.262H161.402V167.98H59.133C29.645 167.98 5.207 146.398 0.738 118.168C0.258 121.203 0 124.316 0 127.484V135.129Z"/>
  </g>
</svg>
